/vscmnt/brussel_pixiu_data/_data_brussel/112/vsc11236/PredSimResults/SUBJ07opt3D/weighted-expIG/worker_04.mot
version=1
nRows=5
nColumns=50
inDegrees=yes
endheader
                time	         pelvis_tilt	         pelvis_list	     pelvis_rotation	           pelvis_tx	           pelvis_ty	           pelvis_tz	       hip_flexion_r	     hip_adduction_r	      hip_rotation_r	        knee_angle_r	       ankle_angle_r	         mtp_angle_r	       hip_flexion_l	     hip_adduction_l	      hip_rotation_l	        knee_angle_l	       ankle_angle_l	         mtp_angle_l	    lumbar_extension	      lumbar_bending	     lumbar_rotation	 ercspn_r/activation	 intobl_r/activation	 extobl_r/activation	    abd_r/activation	    add_r/activation	hamstrings_r/activation	bifemsh_r/activation	glut_max_r/activation	iliopsoas_r/activation	rect_fem_r/activation	  vasti_r/activation	gastroc_r/activation	 soleus_r/activation	tib_ant_r/activation	 ercspn_l/activation	 intobl_l/activation	 extobl_l/activation	    abd_l/activation	    add_l/activation	hamstrings_l/activation	bifemsh_l/activation	glut_max_l/activation	iliopsoas_l/activation	rect_fem_l/activation	  vasti_l/activation	gastroc_l/activation	 soleus_l/activation	tib_ant_l/activation	
          0.00000000	         -4.24123866	         -0.17753268	          9.50786431	          0.00000000	          0.84641664	         -0.01452732	         31.32037239	         -2.80050473	         -6.03203510	         -9.08684221	          2.72773112	          0.27262384	        -14.41387499	         -0.05294900	          5.27120396	         -9.37091970	          8.32665548	         29.45513565	        -12.03423699	         -1.24142491	         -1.73415892	          0.12704202	          0.12035324	          0.01000039	          0.01473486	          0.19060540	          0.08843887	          0.10714601	          0.11831935	          0.04619873	          0.01000168	          0.01000033	          0.01000047	          0.01000031	          0.42984560	          0.11489663	          0.01000011	          0.01000013	          0.03221156	          0.06322971	          0.01711789	          0.17049455	          0.01974244	          0.45574670	          0.01184547	          0.01000076	          0.17394707	          0.32899566	          0.01665525	
          0.01112111	         -4.23433864	         -0.11700131	          9.54832869	          0.01652814	          0.84465082	         -0.01399354	         31.28055040	         -2.61891552	         -5.72775527	        -10.99071101	          2.37779890	          0.24883055	        -14.88569376	         -0.14273419	          4.97275354	        -10.53436455	          7.37639637	         31.09553584	        -11.85865801	         -0.89331565	         -1.93281103	          0.10717703	          0.12533457	          0.01000015	          0.01243086	          0.18354687	          0.07726156	          0.09489413	          0.18273255	          0.03897472	          0.01000037	          0.01000012	          0.01360773	          0.01185352	          0.47646464	          0.14015223	          0.01000006	          0.01000035	          0.02717469	          0.10069867	          0.01445156	          0.15602837	          0.01665537	          0.45113188	          0.01000062	          0.01000012	          0.14674723	          0.30804812	          0.01405090	
          0.02224222	         -4.22213189	         -0.04446208	          9.53300529	          0.03319529	          0.84310891	         -0.01339470	         31.08323560	         -2.47110286	         -5.38703077	        -12.66687575	          1.99590946	          0.23983189	        -15.14315186	         -0.19233977	          4.62372793	        -12.10882396	          6.30957829	         32.70528969	        -11.68334748	         -0.55360442	         -2.11881197	          0.13687013	          0.10573626	          0.01000014	          0.08467781	          0.19033806	          0.06817136	          0.09201693	          0.19547391	          0.03288031	          0.01000017	          0.01000003	          0.01147995	          0.01000004	          0.55088229	          0.16164637	          0.01000005	          0.01000019	          0.02292543	          0.09198629	          0.01242781	          0.13329195	          0.01405102	          0.39163334	          0.01000098	          0.01000010	          0.12380058	          0.28431364	          0.01185379	
          0.03336333	         -4.20617636	          0.04621101	          9.46289185	          0.04980015	          0.84193148	         -0.01270757	         30.81817002	         -2.33644537	         -5.11038512	        -14.21692013	          1.61687672	          0.21879436	        -15.13518871	         -0.19708340	          4.22966778	        -14.14197459	          5.07968275	         34.22101681	        -11.52823660	         -0.23038926	         -2.28896188	          0.15187380	          0.08920246	          0.01000012	          0.14321661	          0.19453934	          0.05751312	          0.07762859	          0.22388041	          0.02773888	          0.01000029	          0.01000012	          0.01000024	          0.01000010	          0.56858316	          0.19927503	          0.01000005	          0.01000018	          0.01934062	          0.08642707	          0.01408459	          0.11299281	          0.01185391	          0.33039448	          0.01000073	          0.01000006	          0.10444206	          0.24773167	          0.01000024	
          0.04448444	         -4.18721808	          0.14267638	          9.34358025	          0.06613744	          0.84127580	         -0.01194463	         30.58990369	         -2.20887031	         -4.89015814	        -15.85539644	          1.54664883	          0.19515832	        -14.81222451	         -0.17075238	          3.80105375	        -16.67928674	          3.69008092	         35.45883025	        -11.40787776	          0.09073976	         -2.43940492	          0.15906191	          0.07525402	          0.01000009	          0.18373197	          0.20922138	          0.05025326	          0.06549008	          0.24412673	          0.02340140	          0.01000032	          0.03539888	          0.01000023	          0.01000005	          0.56304210	          0.24053919	          0.01000004	          0.01000021	          0.01631637	          0.10598633	          0.01495236	          0.10174983	          0.01000038	          0.27873124	          0.01000037	          0.01000003	          0.08811060	          0.20899425	          0.01000006	
